<svg width="150" height="80" viewBox="0 0 150 80" fill="none" xmlns="http://www.w3.org/2000/svg"><path d="M14.798 74.0298V53.7266H18.3992V74.0298H14.798Z" fill="black"/><path d="M23.8582 74.0298V53.7266H27.9251L31.5263 63.6609C31.7539 64.3025 31.9712 64.9648 32.1782 65.6477C32.3852 66.31 32.6025 66.9723 32.8301 67.6346H32.9543C33.182 66.9723 33.3889 66.31 33.5752 65.6477C33.7822 64.9648 33.9995 64.3025 34.2272 63.6609L37.7352 53.7266H41.8331V74.0298H38.5113V64.7475C38.5113 64.2714 38.5217 63.754 38.5424 63.1952C38.5838 62.6364 38.6252 62.0776 38.6666 61.5188C38.708 60.9393 38.7597 60.3805 38.8218 59.8424C38.8839 59.2836 38.9356 58.7662 38.977 58.2901H38.8528L37.2075 63.0089L33.8857 72.1361H31.7436L28.3907 63.0089L26.7764 58.2901H26.6522C26.6936 58.7662 26.735 59.2836 26.7764 59.8424C26.8385 60.3805 26.8902 60.9393 26.9316 61.5188C26.9937 62.0776 27.0351 62.6364 27.0558 63.1952C27.0972 63.754 27.1179 64.2714 27.1179 64.7475V74.0298H23.8582Z" fill="black"/><path d="M47.2887 74.0298V53.7266H53.6839C54.8015 53.7266 55.8364 53.83 56.7884 54.037C57.7611 54.244 58.5993 54.5958 59.303 55.0925C60.0067 55.5892 60.5552 56.2412 60.9484 57.0483C61.3416 57.8348 61.5383 58.8179 61.5383 59.9976C61.5383 61.1152 61.3416 62.0879 60.9484 62.9158C60.5552 63.7437 60.0067 64.437 59.303 64.9958C58.62 65.5339 57.8025 65.9375 56.8505 66.2066C55.9192 66.4549 54.905 66.5791 53.8081 66.5791H50.8899V74.0298H47.2887ZM50.8899 63.6919H53.5287C56.509 63.6919 57.9992 62.4605 57.9992 59.9976C57.9992 58.7144 57.6059 57.8348 56.8195 57.3588C56.0537 56.8621 54.9154 56.6137 53.4045 56.6137H50.8899V63.6919Z" fill="black"/><path d="M68.2701 63.2263L67.556 65.7098H72.7405L72.0265 63.2263C71.6953 62.15 71.3745 61.0428 71.0641 59.9045C70.7743 58.7662 70.4846 57.6382 70.1948 56.5206H70.0707C69.7809 57.6589 69.4912 58.7972 69.2014 59.9355C68.9117 61.0531 68.6012 62.15 68.2701 63.2263ZM61.4713 74.0298L68.0838 53.7266H72.3059L78.9184 74.0298H75.131L73.5477 68.5349H66.7178L65.1345 74.0298H61.4713Z" fill="black"/><path d="M81.7197 74.0298V53.7266H88.5806C89.6361 53.7266 90.6192 53.83 91.5298 54.037C92.4405 54.244 93.2269 54.5855 93.8892 55.0615C94.5515 55.5168 95.0689 56.1274 95.4415 56.8931C95.8347 57.6589 96.0313 58.6109 96.0313 59.7492C96.0313 61.3015 95.6588 62.5536 94.9137 63.5057C94.1893 64.4577 93.2166 65.1407 91.9955 65.5546L96.8385 74.0298H92.8027L88.4253 66.0824H85.3209V74.0298H81.7197ZM85.3209 63.2263H88.208C89.5947 63.2263 90.6502 62.9365 91.3746 62.357C92.1197 61.7775 92.4922 60.9082 92.4922 59.7492C92.4922 58.5695 92.1197 57.752 91.3746 57.2967C90.6502 56.8414 89.5947 56.6137 88.208 56.6137H85.3209V63.2263Z" fill="black"/><path d="M108.897 74.4024C107.531 74.4024 106.258 74.1747 105.078 73.7194C103.919 73.2641 102.905 72.5914 102.036 71.7015C101.187 70.8115 100.525 69.7146 100.049 68.4107C99.5729 67.1069 99.3349 65.6167 99.3349 63.9403C99.3349 62.2846 99.5832 60.8048 100.08 59.5009C100.577 58.1763 101.249 57.0587 102.098 56.148C102.967 55.2374 103.981 54.5441 105.14 54.068C106.32 53.592 107.582 53.354 108.928 53.354C110.376 53.354 111.598 53.6231 112.591 54.1612C113.605 54.6786 114.433 55.2684 115.075 55.9307L113.15 58.2591C112.632 57.7624 112.053 57.3484 111.411 57.0173C110.79 56.6655 110.004 56.4895 109.052 56.4895C108.141 56.4895 107.313 56.6655 106.568 57.0173C105.844 57.3484 105.213 57.8348 104.675 58.4764C104.157 59.0973 103.754 59.8631 103.464 60.7737C103.174 61.6844 103.029 62.7088 103.029 63.8472C103.029 66.1652 103.547 67.9865 104.581 69.311C105.637 70.6149 107.189 71.2669 109.238 71.2669C109.818 71.2669 110.366 71.1944 110.884 71.0495C111.401 70.884 111.825 70.6563 112.156 70.3666V65.9892H108.307V63.04H115.385V71.9809C114.702 72.6639 113.791 73.2434 112.653 73.7194C111.535 74.1747 110.283 74.4024 108.897 74.4024Z" fill="black"/><path d="M128.068 74.4024C126.744 74.4024 125.533 74.1644 124.436 73.6883C123.339 73.1916 122.397 72.4879 121.611 71.5773C120.824 70.646 120.214 69.5283 119.779 68.2245C119.345 66.9206 119.127 65.4408 119.127 63.7851C119.127 62.15 119.345 60.6909 119.779 59.4078C120.214 58.1039 120.824 57.007 121.611 56.117C122.397 55.2271 123.339 54.5441 124.436 54.068C125.533 53.592 126.744 53.354 128.068 53.354C129.393 53.354 130.604 53.592 131.7 54.068C132.797 54.5441 133.739 55.2271 134.526 56.117C135.333 57.007 135.954 58.1039 136.388 59.4078C136.823 60.6909 137.04 62.15 137.04 63.7851C137.04 65.4408 136.823 66.9206 136.388 68.2245C135.954 69.5283 135.333 70.646 134.526 71.5773C133.739 72.4879 132.797 73.1916 131.7 73.6883C130.604 74.1644 129.393 74.4024 128.068 74.4024ZM128.068 71.2669C128.875 71.2669 129.6 71.0909 130.241 70.7391C130.883 70.3873 131.431 69.8905 131.887 69.2489C132.342 68.5867 132.694 67.8002 132.942 66.8895C133.191 65.9582 133.315 64.9234 133.315 63.7851C133.315 61.5084 132.839 59.7285 131.887 58.4454C130.955 57.1415 129.683 56.4895 128.068 56.4895C126.454 56.4895 125.171 57.1415 124.219 58.4454C123.287 59.7285 122.822 61.5084 122.822 63.7851C122.822 64.9234 122.946 65.9582 123.194 66.8895C123.443 67.8002 123.794 68.5867 124.25 69.2489C124.705 69.8905 125.253 70.3873 125.895 70.7391C126.537 71.0909 127.261 71.2669 128.068 71.2669Z" fill="black"/><g clip-path="url(#clip0)"><path fill-rule="evenodd" clip-rule="evenodd" d="M91.8219 16.8465C92.5159 18.8645 92.8927 21.03 92.8927 23.2836C92.8927 28.324 91.0077 32.9242 87.9043 36.4177C90.3488 39.68 94.246 41.7911 98.6363 41.7911C106.038 41.7911 112.038 35.7908 112.038 28.3891C112.038 20.9874 106.038 14.9872 98.6363 14.9872C96.1482 14.9872 93.8185 15.6651 91.8219 16.8465Z" fill="black"/><path fill-rule="evenodd" clip-rule="evenodd" d="M102.705 22.0072L97.652 27.9645C97.0788 28.6403 97.2575 29.6702 98.025 30.1133C98.7924 30.5564 99.7737 30.1962 100.072 29.3619L102.705 22.0072Z" fill="#F8BA07"/><path fill-rule="evenodd" clip-rule="evenodd" d="M54.3956 16.8465C53.7016 18.8645 53.3248 21.03 53.3248 23.2836C53.3248 28.324 55.2097 32.9241 58.3131 36.4176C55.8687 39.68 51.9714 41.791 47.5811 41.791C40.1794 41.791 34.1791 35.7908 34.1791 28.3891C34.1791 20.9874 40.1794 14.9871 47.5811 14.9871C50.0692 14.9871 52.3989 15.6652 54.3956 16.8465Z" fill="black"/><path fill-rule="evenodd" clip-rule="evenodd" d="M44.2194 22.0072L49.2724 27.9645C49.8456 28.6403 49.6668 29.6702 48.8994 30.1133C48.132 30.5564 47.1507 30.1962 46.852 29.3619L44.2194 22.0072Z" fill="#F8BA07"/><path d="M73.1086 41.791C83.33 41.791 91.6161 33.505 91.6161 23.2836C91.6161 13.0622 83.33 4.77612 73.1086 4.77612C62.8872 4.77612 54.6011 13.0622 54.6011 23.2836C54.6011 33.505 62.8872 41.791 73.1086 41.791Z" fill="black"/><path fill-rule="evenodd" clip-rule="evenodd" d="M72.8814 13.7108L74.9775 25.2393C75.2152 26.5471 74.2106 27.7509 72.8814 27.7509C71.5522 27.7509 70.5475 26.5471 70.7853 25.2393L72.8814 13.7108Z" fill="#F8BA07"/><path d="M73.1085 8.60524C73.1085 7.90032 72.5362 7.32356 71.8335 7.37989C70.175 7.51286 68.5449 7.90464 67.0029 8.54335C65.0672 9.34514 63.3084 10.5204 61.8268 12.0019C60.3453 13.4834 59.1701 15.2423 58.3683 17.178C57.7296 18.7199 57.3378 20.3501 57.2048 22.0085C57.1485 22.7112 57.7253 23.2836 58.4302 23.2836C59.1351 23.2836 59.7003 22.7108 59.7673 22.0091C59.8937 20.6862 60.2164 19.387 60.7267 18.1549C61.4002 16.5289 62.3874 15.0514 63.6319 13.807C64.8764 12.5625 66.3538 11.5753 67.9798 10.9018C69.212 10.3914 70.5111 10.0687 71.8341 9.94235C72.5358 9.87532 73.1085 9.31017 73.1085 8.60524Z" fill="#F8BA07"/></g><defs><clipPath id="clip0"><rect width="77.859" height="37.0149" fill="white" transform="translate(34.1791 4.77612)"/></clipPath></defs></svg>